<svg xmlns="http://www.w3.org/2000/svg" viewBox="0 0 64 64" width="64" height="64">
  <rect width="64" height="64" rx="14" fill="#fdf6f2"/>
  <!-- โบว์ริบบิ้นชมพู -->
  <g fill="#ec4899">
    <path d="M32 32c-6-9-14-13-19-9-4 3-4 11 1 15 4 3 12 1 18-6z"/>
    <path d="M32 32c6-9 14-13 19-9 4 3 4 11-1 15-4 3-12 1-18-6z"/>
  </g>
  <g fill="#f472b6">
    <path d="M32 32c-4 7-9 14-13 14-2 0-3-3-2-7l6-12z"/>
    <path d="M32 32c4 7 9 14 13 14 2 0 3-3 2-7l-6-12z"/>
  </g>
  <circle cx="32" cy="32" r="5" fill="#db2777"/>
</svg>
